<?xml version="1.0" encoding="UTF-8" standalone="no"?>
<!-- Generated by IcoMoon.io -->
<svg
   xmlns:ns="http://creativecommons.org/ns#"
   xmlns:dc="http://purl.org/dc/elements/1.1/"
   xmlns:cc="http://web.resource.org/cc/"
   xmlns:rdf="http://www.w3.org/1999/02/22-rdf-syntax-ns#"
   xmlns:svg="http://www.w3.org/2000/svg"
   xmlns="http://www.w3.org/2000/svg"
   xmlns:sodipodi="http://sodipodi.sourceforge.net/DTD/sodipodi-0.dtd"
   xmlns:inkscape="http://www.inkscape.org/namespaces/inkscape"
   version="1.0"
   width="64"
   height="32"
   viewBox="0 0 32 32"
   id="svg2"
   inkscape:version="0.45pre1"
   sodipodi:docname="addBook_w.svg"
   sodipodi:version="0.32"
   inkscape:output_extension="org.inkscape.output.svg.inkscape"
   sodipodi:docbase="C:\xampp\htdocs\ELSE-DEV\htdocs\img\svg"
   sodipodi:modified="true">
  <metadata
     id="metadata12">
    <rdf:RDF>
      <ns:Work
         rdf:about="">
        <dc:format>image/svg+xml</dc:format>
        <dc:type
           rdf:resource="http://purl.org/dc/dcmitype/StillImage" />
        <dc:title />
      </ns:Work>
      <cc:Work
         rdf:about="">
        <dc:format>image/svg+xml</dc:format>
        <dc:type
           rdf:resource="http://purl.org/dc/dcmitype/StillImage" />
      </cc:Work>
    </rdf:RDF>
  </metadata>
  <defs
     id="defs10" />
  <sodipodi:namedview
     pagecolor="#ffffff"
     bordercolor="#666666"
     borderopacity="1"
     objecttolerance="10"
     gridtolerance="10"
     guidetolerance="10"
     inkscape:pageopacity="0"
     inkscape:pageshadow="2"
     inkscape:window-width="1680"
     inkscape:window-height="987"
     id="namedview8"
     showgrid="true"
     inkscape:zoom="11.313709"
     inkscape:cx="16.1437"
     inkscape:cy="16.243555"
     inkscape:window-x="1672"
     inkscape:window-y="-8"
     inkscape:window-maximized="1"
     inkscape:current-layer="svg2"
     width="64px"
     height="32px">
    <inkscape:grid
       type="xygrid"
       id="grid5894"
       empspacing="5"
       visible="true"
       enabled="true"
       snapvisiblegridlinesonly="true"
       spacingx="0.5px"
       spacingy="0.5px" />
  </sodipodi:namedview>
  <g
     id="g4" />
  <g
     style="font-size:16px;font-style:normal;font-weight:normal;line-height:125%;letter-spacing:0px;word-spacing:0px;fill:#000000;fill-opacity:1;stroke:none;font-family:HAW Frutiger Next Regular"
     id="text2989" />
  <g
     id="g3141"
     transform="translate(15,5.9604645e-8)"
     style="fill:#806600">
    <path
       style="fill:#806600;stroke:#ffffff;stroke-width:1.99999988;stroke-miterlimit:4;stroke-dasharray:none;stroke-opacity:1"
       d="M -23.84375,1.71875 C -26.142945,1.71875 -28,3.8035324 -28,6.375 L -28,26.34375 C -28,28.915218 -26.142945,31 -23.84375,31 L 26.65625,30.8125 C 28.955445,30.8125 30.8125,28.727717 30.8125,26.15625 L 30.8125,6.1875 C 30.8125,3.6160324 28.955445,1.53125 26.65625,1.53125 L -23.84375,1.71875 z "
       id="rect3037"
       sodipodi:nodetypes="ccccccccc" />
  </g>
  <g
     style="font-size:16px;font-style:normal;font-weight:normal;line-height:125%;letter-spacing:0px;word-spacing:0px;fill:#ffffff;fill-opacity:1;stroke:none;font-family:HAW Frutiger Next Regular"
     id="g5891"
     transform="matrix(0.6800609,0,0,0.7586666,17.375354,4.0828578)">
    <path
       id="path3013"
       style="fill:#ffffff"
       d="M 19.521998,18.821033 L 19.521999,8.9352683 L 17.316313,10.50573 L 17.316313,7.6171663 L 19.521998,6.2990643 L 22.462912,6.2990643 L 22.462912,18.821034 C 21.697792,18.835874 21.27596,18.874374 19.521998,18.821033 L 19.521998,18.821033 z M 12.904944,14.207676 L 12.904944,18.161982 L 9.9640295,18.161982 L 9.9640295,14.207676 L 5.5526603,14.207676 L 5.5526603,11.571472 L 9.9640295,11.571472 L 9.9640295,7.6171663 L 12.904944,7.6171663 L 12.904944,11.571472 L 17.316313,11.571473 L 17.316313,14.207676 L 12.904944,14.207676 z M 28.327645,3.8907849 L 28.327645,29.890785 L 7.3276449,29.890785 C 5.6706449,29.890785 4.3276449,28.547785 4.3276449,26.890785 C 4.3276449,25.233785 5.6706449,23.890785 7.3276449,23.890785 L 26.327645,23.890785 L 26.327645,-0.10921501 L 6.3276449,-0.10921501 C 4.1276449,-0.10921501 2.3276449,1.6907849 2.3276449,3.8907849 L 2.3276449,27.890785 C 2.3276449,30.090785 4.1276449,31.890785 6.3276449,31.890785 L 30.327645,31.890785 L 30.327645,3.8907849 L 28.327645,3.8907849 z M 8.3276449,25.890785 L 26.327645,25.890785 L 26.327645,27.890785 L 8.3276449,27.890785 L 8.3276449,25.890785 z "
       inkscape:connector-curvature="0"
       sodipodi:nodetypes="cccccccccccccccccccccccsssccsssscccccccc" />
  </g>
  <g
     style="font-size:16px;font-style:normal;font-weight:normal;line-height:125%;letter-spacing:0px;word-spacing:0px;fill:#ffffff;fill-opacity:1;stroke:none;font-family:HAW Frutiger Next Regular"
     id="g3148"
     transform="matrix(0.6800609,0,0,0.7586666,-6.624645,4.0828588)">
    <path
       id="path3150"
       style="fill:#ffffff"
       d="M 28.327645,3.8907849 L 28.327645,29.890785 L 7.3276449,29.890785 C 5.6706449,29.890785 4.3276449,28.547785 4.3276449,26.890785 C 4.3276449,25.233785 5.6706449,23.890785 7.3276449,23.890785 L 26.327645,23.890785 L 26.327645,-0.10921501 L 6.3276449,-0.10921501 C 4.1276449,-0.10921501 2.3276449,1.6907849 2.3276449,3.8907849 L 2.3276449,27.890785 C 2.3276449,30.090785 4.1276449,31.890785 6.3276449,31.890785 L 30.327645,31.890785 L 30.327645,3.8907849 L 28.327645,3.8907849 z M 8.3276449,25.890785 L 26.327645,25.890785 L 26.327645,27.890785 L 8.3276449,27.890785 L 8.3276449,25.890785 z "
       inkscape:connector-curvature="0"
       sodipodi:nodetypes="csssccssssccccccccc" />
  </g>
</svg>
