<?xml version="1.0" encoding="UTF-8" standalone="no"?>
<!-- Created with Inkscape (http://www.inkscape.org/) -->

<svg
   xmlns:dc="http://purl.org/dc/elements/1.1/"
   xmlns:cc="http://creativecommons.org/ns#"
   xmlns:rdf="http://www.w3.org/1999/02/22-rdf-syntax-ns#"
   xmlns:svg="http://www.w3.org/2000/svg"
   xmlns="http://www.w3.org/2000/svg"
   xmlns:sodipodi="http://sodipodi.sourceforge.net/DTD/sodipodi-0.dtd"
   xmlns:inkscape="http://www.inkscape.org/namespaces/inkscape"
   width="32"
   height="32"
   id="svg2"
   version="1.1"
   inkscape:version="0.92.2 (5c3e80d, 2017-08-06)"
   sodipodi:docname="edit_w.svg"
   sodipodi:version="0.32"
   inkscape:output_extension="org.inkscape.output.svg.inkscape"
   sodipodi:modified="true">
  <defs
     id="defs4" />
  <sodipodi:namedview
     id="base"
     pagecolor="#ffffff"
     bordercolor="#666666"
     borderopacity="1.0"
     inkscape:pageopacity="0.0"
     inkscape:pageshadow="2"
     inkscape:zoom="11.108541"
     inkscape:cx="29.634735"
     inkscape:cy="16.570863"
     inkscape:document-units="px"
     inkscape:current-layer="layer1"
     showgrid="false"
     inkscape:window-width="1744"
     inkscape:window-height="1224"
     inkscape:window-x="1982"
     inkscape:window-y="48"
     inkscape:window-maximized="0"
     width="32px"
     showguides="true"
     inkscape:guide-bbox="true">
    <sodipodi:guide
       orientation="0,1"
       position="3.1507288,36.818516"
       id="guide3842"
       inkscape:locked="false" />
    <sodipodi:guide
       orientation="1,0"
       position="17.313979"
       id="guide2991"
       inkscape:locked="false" />
    <sodipodi:guide
       orientation="0,1"
       position="20.614768,15.753644"
       id="guide2993"
       inkscape:locked="false" />
  </sodipodi:namedview>
  <metadata
     id="metadata7">
    <rdf:RDF>
      <cc:Work
         rdf:about="">
        <dc:format>image/svg+xml</dc:format>
        <dc:type
           rdf:resource="http://purl.org/dc/dcmitype/StillImage" />
        <dc:title></dc:title>
      </cc:Work>
      <cc:Work
         rdf:about="">
        <dc:format>image/svg+xml</dc:format>
        <dc:type
           rdf:resource="http://purl.org/dc/dcmitype/StillImage" />
      </cc:Work>
      <cc:Work
         rdf:about="">
        <dc:format>image/svg+xml</dc:format>
        <dc:type
           rdf:resource="http://purl.org/dc/dcmitype/StillImage" />
      </cc:Work>
    </rdf:RDF>
  </metadata>
  <g
     inkscape:label="Ebene 1"
     inkscape:groupmode="layer"
     id="layer1"
     transform="translate(0,-1020.3619)">
    <rect
       style="fill:#1a1a1a;fill-opacity:1;fill-rule:nonzero;stroke:#ffffff;stroke-width:2;stroke-miterlimit:4;stroke-dasharray:none;stroke-opacity:1"
       id="rect15313"
       width="40"
       height="37.207474"
       x="37.558014"
       y="1015.5434"
       rx="4.1501708"
       ry="4.6416383" />
    <rect
       style="fill:none;stroke:#ffffff;stroke-width:1.99999988000000010;stroke-miterlimit:4;stroke-opacity:1;stroke-dasharray:none"
       id="rect3037"
       width="29.488052"
       height="29.269617"
       x="1.2796803"
       y="1021.8834"
       ry="4.6416383"
       rx="4.1501708" />
    <path
       d="m 26.78593,1038.9619 c -1.358099,-2.3522 -0.541136,-5.366 1.82401,-6.7363 l -2.543908,-4.4059 c -0.726368,0.4263 -1.571641,0.6706 -2.473535,0.6706 -2.718625,0 -4.921997,-2.218 -4.921997,-4.9544 h -5.087007 c 0.0065,0.8445 -0.203836,1.7011 -0.655996,2.4832 -1.358099,2.3522 -4.3768156,3.1522 -6.7451976,1.7885 l -2.543099,4.4059 c 0.73203,0.4166 1.366187,1.0256 1.81673,1.807 1.355672,2.3482 0.543563,5.3572 -1.812686,6.729 l 2.543908,4.406 c 0.723942,-0.4223 1.565171,-0.6633 2.462211,-0.6633 2.7097266,0 4.9074366,2.2042 4.9211876,4.9277 h 5.087007 c -0.0024,-0.8364 0.209498,-1.6825 0.655997,-2.4574 1.355672,-2.3482 4.367109,-3.1498 6.733873,-1.7949 l 2.543908,-4.4059 c -0.727177,-0.4166 -1.35729,-1.0241 -1.805406,-1.8006 z m -10.661764,2.7575 c -2.894151,0 -5.240693,-2.3466 -5.240693,-5.2407 0,-2.8942 2.346542,-5.2407 5.240693,-5.2407 2.89415,0 5.240692,2.3465 5.240692,5.2407 0,2.8941 -2.346542,5.2407 -5.240692,5.2407 z"
       id="path9267"
       inkscape:connector-curvature="0"
       style="fill:#ffffff" />
  </g>
</svg>
