<?xml version="1.0" encoding="UTF-8" standalone="no"?>
<!-- Created with Inkscape (http://www.inkscape.org/) -->

<svg
   xmlns:dc="http://purl.org/dc/elements/1.1/"
   xmlns:cc="http://creativecommons.org/ns#"
   xmlns:rdf="http://www.w3.org/1999/02/22-rdf-syntax-ns#"
   xmlns:svg="http://www.w3.org/2000/svg"
   xmlns="http://www.w3.org/2000/svg"
   xmlns:sodipodi="http://sodipodi.sourceforge.net/DTD/sodipodi-0.dtd"
   xmlns:inkscape="http://www.inkscape.org/namespaces/inkscape"
   width="32"
   height="32"
   id="svg2"
   version="1.1"
   inkscape:version="0.91 r13725"
   sodipodi:docname="export.svg"
   sodipodi:version="0.32"
   inkscape:output_extension="org.inkscape.output.svg.inkscape"
   sodipodi:modified="true">
  <defs
     id="defs4" />
  <sodipodi:namedview
     id="base"
     pagecolor="#ffffff"
     bordercolor="#666666"
     borderopacity="1.0"
     inkscape:pageopacity="0.0"
     inkscape:pageshadow="2"
     inkscape:zoom="7.8549247"
     inkscape:cx="33.467034"
     inkscape:cy="12.257362"
     inkscape:document-units="px"
     inkscape:current-layer="layer1"
     showgrid="false"
     inkscape:window-width="1680"
     inkscape:window-height="987"
     inkscape:window-x="1672"
     inkscape:window-y="-8"
     inkscape:window-maximized="1"
     width="32px"
     showguides="true"
     inkscape:guide-bbox="true">
    <sodipodi:guide
       orientation="0,1"
       position="43.539564,-1.7823214"
       id="guide3842" />
    <sodipodi:guide
       orientation="1,0"
       position="16.023706,22.415185"
       id="guide2991" />
    <sodipodi:guide
       orientation="0,1"
       position="23.042869,6.7473594"
       id="guide2993" />
  </sodipodi:namedview>
  <metadata
     id="metadata7">
    <rdf:RDF>
      <cc:Work
         rdf:about="">
        <dc:format>image/svg+xml</dc:format>
        <dc:type
           rdf:resource="http://purl.org/dc/dcmitype/StillImage" />
        <dc:title></dc:title>
      </cc:Work>
      <cc:Work
         rdf:about="">
        <dc:format>image/svg+xml</dc:format>
        <dc:type
           rdf:resource="http://purl.org/dc/dcmitype/StillImage" />
      </cc:Work>
    </rdf:RDF>
  </metadata>
  <g
     inkscape:label="Ebene 1"
     inkscape:groupmode="layer"
     id="layer1"
     transform="translate(0,-1020.3619)">
    <rect
       style="fill:#1a1a1a;fill-opacity:1;fill-rule:nonzero;stroke:#ffffff;stroke-width:2;stroke-miterlimit:4;stroke-dasharray:none;stroke-opacity:1"
       id="rect15313"
       width="40"
       height="37.207474"
       x="47.484634"
       y="1018.0515"
       rx="4.1501708"
       ry="4.6416383" />
    <rect
       style="fill:#ffffff;stroke:#000000;stroke-width:0.5;stroke-miterlimit:4;stroke-dasharray:none;stroke-opacity:1"
       id="rect3037"
       width="29.488052"
       height="29.269617"
       x="1.2796803"
       y="1021.8506"
       ry="4.6416383"
       rx="4.1501708" />
    <path
       inkscape:connector-curvature="0"
       style="fill:#cccccc"
       d="m 23.243336,1029.0826 -14.3415483,0 -4.3024645,4.3025 0,15.0586 c 0,0.3958 0.3212506,0.7171 0.7170774,0.7171 l 21.5123224,0 c 0.395827,0 0.717077,-0.3213 0.717077,-0.7171 l 0,-15.0586 -4.302464,-4.3025 z m -4.302465,12.9074 0,4.3025 -5.736619,0 0,-4.3025 -4.3024643,0 7.1707743,-5.7366 7.170774,5.7366 -4.302465,0 z m -10.879498,-10.0391 1.4341548,-1.4341 13.1533512,0 1.434154,1.4341 -16.02166,0 z"
       id="path6" />
    <g
       style="font-style:normal;font-weight:normal;font-size:5.3599081px;line-height:125%;font-family:'Bitstream Vera Sans';letter-spacing:0px;word-spacing:0px;fill:#000000;fill-opacity:1;stroke:none;stroke-width:1px;stroke-linecap:butt;stroke-linejoin:miter;stroke-opacity:1"
       id="text4147">
      <path
         d="m 6.1589235,1024.2434 2.4705826,0 0,0.4449 -1.9419198,0 0,1.1568 1.8607884,0 0,0.4449 -1.8607884,0 0,1.4158 1.9890284,0 0,0.445 -2.5176912,0 0,-3.9074 z"
         style=""
         id="path4182" />
      <path
         d="m 9.3623061,1024.2434 0.5679199,0 0.97096,1.4525 0.976194,-1.4525 0.56792,0 -1.256228,1.8765 1.339977,2.0309 -0.56792,0 -1.0992,-1.6619 -1.1070515,1.6619 -0.5705371,0 1.3949366,-2.0859 -1.2169709,-1.8215 z"
         style=""
         id="path4184" />
      <path
         d="m 13.753871,1024.6778 0,1.4682 0.664755,0 q 0.369017,0 0.570537,-0.191 0.20152,-0.1911 0.20152,-0.5444 0,-0.3507 -0.20152,-0.5417 -0.20152,-0.1911 -0.570537,-0.1911 l -0.664755,0 z m -0.528662,-0.4344 1.193417,0 q 0.656902,0 0.991897,0.2983 0.337611,0.2958 0.337611,0.8689 0,0.5784 -0.337611,0.8741 -0.334995,0.2958 -0.991897,0.2958 l -0.664755,0 0,1.5703 -0.528662,0 0,-3.9074 z"
         style=""
         id="path4186" />
      <path
         d="m 18.045985,1024.6019 q -0.575771,0 -0.916,0.4292 -0.337611,0.4292 -0.337611,1.1699 0,0.738 0.337611,1.1672 0.340229,0.4292 0.916,0.4292 0.575771,0 0.910766,-0.4292 0.337611,-0.4292 0.337611,-1.1672 0,-0.7407 -0.337611,-1.1699 -0.334995,-0.4292 -0.910766,-0.4292 z m 0,-0.4292 q 0.821783,0 1.313806,0.5522 0.492022,0.5496 0.492022,1.4761 0,0.9238 -0.492022,1.4761 -0.492023,0.5496 -1.313806,0.5496 -0.8244,0 -1.31904,-0.5496 -0.492023,-0.5496 -0.492023,-1.4761 0,-0.9265 0.492023,-1.4761 0.49464,-0.5522 1.31904,-0.5522 z"
         style=""
         id="path4188" />
      <path
         d="m 22.531767,1026.3188 q 0.170115,0.057 0.32976,0.246 0.162263,0.1884 0.324526,0.5182 l 0.536514,1.0678 -0.56792,0 -0.499874,-1.0024 q -0.193668,-0.3926 -0.376868,-0.5208 -0.180583,-0.1283 -0.49464,-0.1283 l -0.575772,0 0,1.6515 -0.528663,0 0,-3.9074 1.193418,0 q 0.669988,0 0.999748,0.28 0.32976,0.28 0.32976,0.8453 0,0.3691 -0.172731,0.6124 -0.170115,0.2434 -0.497258,0.3377 z m -1.324274,-1.641 0,1.3871 0.664755,0 q 0.382102,0 0.575771,-0.1754 0.196286,-0.1779 0.196286,-0.5208 0,-0.3428 -0.196286,-0.5155 -0.193669,-0.1754 -0.575771,-0.1754 l -0.664755,0 z"
         style=""
         id="path4190" />
      <path
         d="m 23.476556,1024.2434 3.305451,0 0,0.4449 -1.387086,0 0,3.4625 -0.53128,0 0,-3.4625 -1.387085,0 0,-0.4449 z"
         style=""
         id="path4192" />
    </g>
    <rect
       style="fill:#ffffff;stroke:#000000;stroke-width:1.99999988;stroke-miterlimit:4;stroke-dasharray:none;stroke-opacity:1"
       id="rect3037-1"
       width="29.488052"
       height="29.269617"
       x="1.3146124"
       y="1057.9364"
       ry="4.6416383"
       rx="4.1501708" />
    <text
       xml:space="preserve"
       style="font-style:normal;font-weight:normal;font-size:5.3599081px;line-height:125%;font-family:'Bitstream Vera Sans';letter-spacing:0px;word-spacing:0px;fill:#000000;fill-opacity:1;stroke:none;stroke-width:1px;stroke-linecap:butt;stroke-linejoin:miter;stroke-opacity:1"
       x="5.6678076"
       y="1064.2365"
       id="text4147-8"
       sodipodi:linespacing="125%"><tspan
         sodipodi:role="line"
         id="tspan4149-6"
         x="5.6678076"
         y="1064.2365">IMPORT</tspan></text>
    <path
       inkscape:connector-curvature="0"
       style="fill:#000000"
       d="m 23.122581,1064.9367 -14.5098128,0 -4.3529441,4.3905 0,15.3666 c 0,0.4039 0.3250198,0.7317 0.7254907,0.7317 l 21.7647192,0 c 0.400471,0 0.725491,-0.3278 0.725491,-0.7317 l 0,-15.3666 -4.352944,-4.3905 z m -7.254907,17.5618 -7.2549058,-5.8539 4.3529428,0 0,-4.3904 5.803927,0 0,4.3904 4.352943,0 -7.254907,5.8539 z m -8.1051808,-14.6348 1.4509812,-1.4634 13.3076746,0 1.450981,1.4634 -16.2096368,0 z"
       id="path6-6" />
  </g>
</svg>
