<?xml version="1.0" encoding="UTF-8" standalone="no"?>
<svg
   xmlns:dc="http://purl.org/dc/elements/1.1/"
   xmlns:cc="http://creativecommons.org/ns#"
   xmlns:rdf="http://www.w3.org/1999/02/22-rdf-syntax-ns#"
   xmlns:svg="http://www.w3.org/2000/svg"
   xmlns="http://www.w3.org/2000/svg"
   xmlns:sodipodi="http://sodipodi.sourceforge.net/DTD/sodipodi-0.dtd"
   xmlns:inkscape="http://www.inkscape.org/namespaces/inkscape"
   sodipodi:modified="true"
   inkscape:output_extension="org.inkscape.output.svg.inkscape"
   sodipodi:version="0.32"
   sodipodi:docname="home_b.svg"
   inkscape:version="1.0 (4035a4fb49, 2020-05-01)"
   version="1.1"
   id="svg2"
   height="32"
   width="32">
  <defs
     id="defs4" />
  <sodipodi:namedview
     inkscape:document-rotation="0"
     inkscape:guide-bbox="true"
     showguides="true"
     width="32px"
     inkscape:window-maximized="0"
     inkscape:window-y="103"
     inkscape:window-x="2329"
     inkscape:window-height="786"
     inkscape:window-width="1367"
     showgrid="false"
     inkscape:current-layer="layer1"
     inkscape:document-units="px"
     inkscape:cy="13.97571"
     inkscape:cx="46.064604"
     inkscape:zoom="5.5542705"
     inkscape:pageshadow="2"
     inkscape:pageopacity="0.0"
     borderopacity="1.0"
     bordercolor="#666666"
     pagecolor="#ffffff"
     id="base">
    <sodipodi:guide
       inkscape:locked="false"
       id="guide3842"
       position="3.1507288,36.818516"
       orientation="0,1" />
    <sodipodi:guide
       inkscape:locked="false"
       id="guide2991"
       position="17.313979"
       orientation="1,0" />
    <sodipodi:guide
       inkscape:locked="false"
       id="guide2993"
       position="20.614768,15.753644"
       orientation="0,1" />
  </sodipodi:namedview>
  <metadata
     id="metadata7">
    <rdf:RDF>
      <cc:Work
         rdf:about="">
        <dc:format>image/svg+xml</dc:format>
        <dc:type
           rdf:resource="http://purl.org/dc/dcmitype/StillImage" />
        <dc:title />
      </cc:Work>
      <cc:Work
         rdf:about="">
        <dc:format>image/svg+xml</dc:format>
        <dc:type
           rdf:resource="http://purl.org/dc/dcmitype/StillImage" />
      </cc:Work>
      <cc:Work
         rdf:about="">
        <dc:format>image/svg+xml</dc:format>
        <dc:type
           rdf:resource="http://purl.org/dc/dcmitype/StillImage" />
      </cc:Work>
    </rdf:RDF>
  </metadata>
  <g
     transform="translate(0,-1020.3619)"
     id="layer1"
     inkscape:groupmode="layer"
     inkscape:label="Ebene 1">
    <rect
       ry="4.6416383"
       rx="4.1501708"
       y="1015.5434"
       x="41.709118"
       height="37.207474"
       width="40"
       id="rect15313"
       style="fill:#1a1a1a;fill-opacity:1;fill-rule:nonzero;stroke:#ffffff;stroke-width:2;stroke-miterlimit:4;stroke-dasharray:none;stroke-opacity:1" />
    <rect
       rx="4.1501708"
       ry="4.6416383"
       y="1021.8834"
       x="1.2796803"
       height="29.269617"
       width="29.488052"
       id="rect3037"
       style="fill:none;stroke:none;stroke-width:1.99999988;stroke-miterlimit:4;stroke-opacity:1;stroke-dasharray:none" />
    <g
       style="fill:#000000"
       transform="matrix(3.385874e-2,0,0,3.385874e-2,3.1507288,1023.406)"
       id="g2222">
      <g
         style="fill:#000000"
         id="g2183">
        <path
           style="fill:#000000"
           d="M 770.4,381.95 L 727.6,433.95 L 385.2,152.35 L 42.8,433.95 L 0,381.95 L 385.2,65.15 L 770.4,381.95 z M 385.3,217.25 L 633.7,423.25 L 633.7,615.851 L 633.7,674.851 L 633.7,705.25 L 136.6,705.25 L 136.6,674.051 L 136.6,615.851 L 136.6,422.451 L 385.3,217.25 z M 405.601,434.65 C 403.874,435.916 385.201,452.65 385.201,452.65 C 385.201,452.65 366.502,435.849 364.801,434.65 C 339.519,416.826 312.301,415.65 291.501,426.55 C 271.001,436.448 258.701,458.248 257.201,483.35 C 257.101,484.248 257.101,485.15 257.101,486.05 C 256.801,505.15 264.301,522.85 275.101,538.55 C 279.901,545.55 285.001,552.15 290.301,558.55 C 298.101,568.448 385.151,650.317 385.151,650.317 C 385.151,650.317 472.3,568.35 480.101,558.55 C 485.401,552.15 490.499,545.448 495.299,538.55 C 506.101,522.748 513.601,505.15 513.299,486.05 C 513.299,485.15 513.299,484.248 513.199,483.35 C 511.699,458.248 499.399,436.35 478.899,426.55 C 458.101,415.65 430.544,416.354 405.601,434.65 z "
           id="path2185" />
      </g>
      <g
         style="fill:#000000"
         id="g2187" />
      <g
         style="fill:#000000"
         id="g2189" />
      <g
         style="fill:#000000"
         id="g2191" />
      <g
         style="fill:#000000"
         id="g2193" />
      <g
         style="fill:#000000"
         id="g2195" />
      <g
         style="fill:#000000"
         id="g2197" />
      <g
         style="fill:#000000"
         id="g2199" />
      <g
         style="fill:#000000"
         id="g2201" />
      <g
         style="fill:#000000"
         id="g2203" />
      <g
         style="fill:#000000"
         id="g2205" />
      <g
         style="fill:#000000"
         id="g2207" />
      <g
         style="fill:#000000"
         id="g2209" />
      <g
         style="fill:#000000"
         id="g2211" />
      <g
         style="fill:#000000"
         id="g2213" />
      <g
         style="fill:#000000"
         id="g2215" />
    </g>
  </g>
</svg>
