<?xml version="1.0" encoding="UTF-8" standalone="no"?>
<!-- Created with Inkscape (http://www.inkscape.org/) -->

<svg
   xmlns:dc="http://purl.org/dc/elements/1.1/"
   xmlns:cc="http://creativecommons.org/ns#"
   xmlns:rdf="http://www.w3.org/1999/02/22-rdf-syntax-ns#"
   xmlns:svg="http://www.w3.org/2000/svg"
   xmlns="http://www.w3.org/2000/svg"
   xmlns:sodipodi="http://sodipodi.sourceforge.net/DTD/sodipodi-0.dtd"
   xmlns:inkscape="http://www.inkscape.org/namespaces/inkscape"
   width="32"
   height="32"
   id="svg2"
   version="1.1"
   inkscape:version="0.92.2 (5c3e80d, 2017-08-06)"
   sodipodi:docname="home_b.svg"
   sodipodi:version="0.32"
   inkscape:output_extension="org.inkscape.output.svg.inkscape"
   sodipodi:modified="true">
  <defs
     id="defs4" />
  <sodipodi:namedview
     id="base"
     pagecolor="#ffffff"
     bordercolor="#666666"
     borderopacity="1.0"
     inkscape:pageopacity="0.0"
     inkscape:pageshadow="2"
     inkscape:zoom="5.5542705"
     inkscape:cx="46.064604"
     inkscape:cy="13.97571"
     inkscape:document-units="px"
     inkscape:current-layer="layer1"
     showgrid="false"
     inkscape:window-width="1367"
     inkscape:window-height="786"
     inkscape:window-x="2451"
     inkscape:window-y="54"
     inkscape:window-maximized="0"
     width="32px"
     showguides="true"
     inkscape:guide-bbox="true">
    <sodipodi:guide
       orientation="0,1"
       position="3.1507288,36.818516"
       id="guide3842"
       inkscape:locked="false" />
    <sodipodi:guide
       orientation="1,0"
       position="17.313979"
       id="guide2991"
       inkscape:locked="false" />
    <sodipodi:guide
       orientation="0,1"
       position="20.614768,15.753644"
       id="guide2993"
       inkscape:locked="false" />
  </sodipodi:namedview>
  <metadata
     id="metadata7">
    <rdf:RDF>
      <cc:Work
         rdf:about="">
        <dc:format>image/svg+xml</dc:format>
        <dc:type
           rdf:resource="http://purl.org/dc/dcmitype/StillImage" />
        <dc:title></dc:title>
      </cc:Work>
      <cc:Work
         rdf:about="">
        <dc:format>image/svg+xml</dc:format>
        <dc:type
           rdf:resource="http://purl.org/dc/dcmitype/StillImage" />
      </cc:Work>
      <cc:Work
         rdf:about="">
        <dc:format>image/svg+xml</dc:format>
        <dc:type
           rdf:resource="http://purl.org/dc/dcmitype/StillImage" />
      </cc:Work>
    </rdf:RDF>
  </metadata>
  <g
     inkscape:label="Ebene 1"
     inkscape:groupmode="layer"
     id="layer1"
     transform="translate(0,-1020.3619)">
    <rect
       style="fill:#1a1a1a;fill-opacity:1;fill-rule:nonzero;stroke:#ffffff;stroke-width:2;stroke-miterlimit:4;stroke-dasharray:none;stroke-opacity:1"
       id="rect15313"
       width="40"
       height="37.207474"
       x="41.709118"
       y="1015.5434"
       rx="4.1501708"
       ry="4.6416383" />
    <rect
       style="fill:none;stroke:#000000;stroke-width:1.99999988;stroke-miterlimit:4;stroke-opacity:1;stroke-dasharray:none"
       id="rect3037"
       width="29.488052"
       height="29.269617"
       x="1.2796803"
       y="1021.8834"
       ry="4.6416383"
       rx="4.1501708" />
    <g
       id="g2222"
       transform="matrix(3.385874e-2,0,0,3.385874e-2,3.1507288,1023.406)"
       style="fill:#000000">
      <g
         id="g2183"
         style="fill:#000000">
        <path
           id="path2185"
           d="M 770.4,381.95 L 727.6,433.95 L 385.2,152.35 L 42.8,433.95 L 0,381.95 L 385.2,65.15 L 770.4,381.95 z M 385.3,217.25 L 633.7,423.25 L 633.7,615.851 L 633.7,674.851 L 633.7,705.25 L 136.6,705.25 L 136.6,674.051 L 136.6,615.851 L 136.6,422.451 L 385.3,217.25 z M 405.601,434.65 C 403.874,435.916 385.201,452.65 385.201,452.65 C 385.201,452.65 366.502,435.849 364.801,434.65 C 339.519,416.826 312.301,415.65 291.501,426.55 C 271.001,436.448 258.701,458.248 257.201,483.35 C 257.101,484.248 257.101,485.15 257.101,486.05 C 256.801,505.15 264.301,522.85 275.101,538.55 C 279.901,545.55 285.001,552.15 290.301,558.55 C 298.101,568.448 385.151,650.317 385.151,650.317 C 385.151,650.317 472.3,568.35 480.101,558.55 C 485.401,552.15 490.499,545.448 495.299,538.55 C 506.101,522.748 513.601,505.15 513.299,486.05 C 513.299,485.15 513.299,484.248 513.199,483.35 C 511.699,458.248 499.399,436.35 478.899,426.55 C 458.101,415.65 430.544,416.354 405.601,434.65 z "
           style="fill:#000000" />
      </g>
      <g
         id="g2187"
         style="fill:#000000" />
      <g
         id="g2189"
         style="fill:#000000" />
      <g
         id="g2191"
         style="fill:#000000" />
      <g
         id="g2193"
         style="fill:#000000" />
      <g
         id="g2195"
         style="fill:#000000" />
      <g
         id="g2197"
         style="fill:#000000" />
      <g
         id="g2199"
         style="fill:#000000" />
      <g
         id="g2201"
         style="fill:#000000" />
      <g
         id="g2203"
         style="fill:#000000" />
      <g
         id="g2205"
         style="fill:#000000" />
      <g
         id="g2207"
         style="fill:#000000" />
      <g
         id="g2209"
         style="fill:#000000" />
      <g
         id="g2211"
         style="fill:#000000" />
      <g
         id="g2213"
         style="fill:#000000" />
      <g
         id="g2215"
         style="fill:#000000" />
    </g>
  </g>
</svg>
