<?xml version="1.0" encoding="UTF-8" standalone="no"?>
<!-- Created with Inkscape (http://www.inkscape.org/) -->

<svg
   xmlns:dc="http://purl.org/dc/elements/1.1/"
   xmlns:cc="http://creativecommons.org/ns#"
   xmlns:rdf="http://www.w3.org/1999/02/22-rdf-syntax-ns#"
   xmlns:svg="http://www.w3.org/2000/svg"
   xmlns="http://www.w3.org/2000/svg"
   xmlns:sodipodi="http://sodipodi.sourceforge.net/DTD/sodipodi-0.dtd"
   xmlns:inkscape="http://www.inkscape.org/namespaces/inkscape"
   width="32"
   height="32"
   id="svg2"
   version="1.1"
   inkscape:version="0.91 r13725"
   sodipodi:docname="import.svg"
   sodipodi:version="0.32"
   inkscape:output_extension="org.inkscape.output.svg.inkscape"
   sodipodi:modified="true">
  <defs
     id="defs4" />
  <sodipodi:namedview
     id="base"
     pagecolor="#ffffff"
     bordercolor="#666666"
     borderopacity="1.0"
     inkscape:pageopacity="0.0"
     inkscape:pageshadow="2"
     inkscape:zoom="11.108541"
     inkscape:cx="20.75942"
     inkscape:cy="1.9444976"
     inkscape:document-units="px"
     inkscape:current-layer="layer1"
     showgrid="false"
     inkscape:window-width="1680"
     inkscape:window-height="987"
     inkscape:window-x="1672"
     inkscape:window-y="-8"
     inkscape:window-maximized="1"
     width="32px"
     showguides="true"
     inkscape:guide-bbox="true">
    <sodipodi:guide
       orientation="0,1"
       position="43.539564,-1.7823214"
       id="guide3842" />
    <sodipodi:guide
       orientation="1,0"
       position="16.023706,22.415185"
       id="guide2991" />
    <sodipodi:guide
       orientation="0,1"
       position="23.042869,6.7473594"
       id="guide2993" />
  </sodipodi:namedview>
  <metadata
     id="metadata7">
    <rdf:RDF>
      <cc:Work
         rdf:about="">
        <dc:format>image/svg+xml</dc:format>
        <dc:type
           rdf:resource="http://purl.org/dc/dcmitype/StillImage" />
        <dc:title></dc:title>
      </cc:Work>
      <cc:Work
         rdf:about="">
        <dc:format>image/svg+xml</dc:format>
        <dc:type
           rdf:resource="http://purl.org/dc/dcmitype/StillImage" />
      </cc:Work>
    </rdf:RDF>
  </metadata>
  <g
     inkscape:label="Ebene 1"
     inkscape:groupmode="layer"
     id="layer1"
     transform="translate(0,-1020.3619)">
    <rect
       style="fill:#1a1a1a;fill-opacity:1;fill-rule:nonzero;stroke:#ffffff;stroke-width:2;stroke-miterlimit:4;stroke-dasharray:none;stroke-opacity:1"
       id="rect15313"
       width="40"
       height="37.207474"
       x="39.33688"
       y="1018.5607"
       rx="4.1501708"
       ry="4.6416383" />
    <rect
       style="fill:#ffffff;stroke:#000000;stroke-width:1.99999988;stroke-miterlimit:4;stroke-dasharray:none;stroke-opacity:1"
       id="rect3037"
       width="29.488052"
       height="29.269617"
       x="1.2796803"
       y="985.69501"
       ry="4.6416383"
       rx="4.1501708" />
    <path
       inkscape:connector-curvature="0"
       style="fill:#000000"
       d="m 23.243336,992.92693 -14.3415483,0 -4.3024645,4.3025 0,15.05857 c 0,0.3958 0.3212506,0.7171 0.7170774,0.7171 l 21.5123224,0 c 0.395827,0 0.717077,-0.3213 0.717077,-0.7171 l 0,-15.05857 -4.302464,-4.3025 z m -4.302465,12.90737 0,4.3025 -5.736619,0 0,-4.3025 -4.3024643,0 7.1707743,-5.7366 7.170774,5.7366 -4.302465,0 z m -10.879498,-10.03907 1.4341548,-1.4341 13.1533512,0 1.434154,1.4341 -16.02166,0 z"
       id="path6" />
    <text
       xml:space="preserve"
       style="font-style:normal;font-weight:normal;font-size:5.3599081px;line-height:125%;font-family:'Bitstream Vera Sans';letter-spacing:0px;word-spacing:0px;fill:#000000;fill-opacity:1;stroke:none;stroke-width:1px;stroke-linecap:butt;stroke-linejoin:miter;stroke-opacity:1"
       x="5.6328778"
       y="991.99506"
       id="text4147"
       sodipodi:linespacing="125%"><tspan
         sodipodi:role="line"
         id="tspan4149"
         x="5.6328778"
         y="991.99506">EXPORT</tspan></text>
    <rect
       style="fill:#ffffff;stroke:#000000;stroke-width:1.99999988;stroke-miterlimit:4;stroke-dasharray:none;stroke-opacity:1"
       id="rect3037-1"
       width="29.488052"
       height="29.269617"
       x="1.3146124"
       y="1021.7807"
       ry="4.6416383"
       rx="4.1501708" />
    <text
       xml:space="preserve"
       style="font-style:normal;font-weight:normal;font-size:5.3599081px;line-height:125%;font-family:'Bitstream Vera Sans';letter-spacing:0px;word-spacing:0px;fill:#000000;fill-opacity:1;stroke:none;stroke-width:1px;stroke-linecap:butt;stroke-linejoin:miter;stroke-opacity:1"
       x="5.6678076"
       y="1028.0808"
       id="text4147-8"
       sodipodi:linespacing="125%"><tspan
         sodipodi:role="line"
         id="tspan4149-6"
         x="5.6678076"
         y="1028.0808">IMPORT</tspan></text>
    <path
       inkscape:connector-curvature="0"
       style="fill:#000000"
       d="m 23.122581,1028.781 -14.5098128,0 -4.3529441,4.3905 0,15.3666 c 0,0.4039 0.3250198,0.7317 0.7254907,0.7317 l 21.7647192,0 c 0.400471,0 0.725491,-0.3278 0.725491,-0.7317 l 0,-15.3666 -4.352944,-4.3905 z m -7.254907,17.5618 -7.2549058,-5.8539 4.3529428,0 0,-4.3904 5.803927,0 0,4.3904 4.352943,0 -7.254907,5.8539 z m -8.1051808,-14.6348 1.4509812,-1.4634 13.3076746,0 1.450981,1.4634 -16.2096368,0 z"
       id="path6-6" />
  </g>
</svg>
