<?xml version="1.0" encoding="UTF-8" standalone="no"?>
<!-- Created with Inkscape (http://www.inkscape.org/) -->

<svg
   xmlns:dc="http://purl.org/dc/elements/1.1/"
   xmlns:cc="http://creativecommons.org/ns#"
   xmlns:rdf="http://www.w3.org/1999/02/22-rdf-syntax-ns#"
   xmlns:svg="http://www.w3.org/2000/svg"
   xmlns="http://www.w3.org/2000/svg"
   xmlns:sodipodi="http://sodipodi.sourceforge.net/DTD/sodipodi-0.dtd"
   xmlns:inkscape="http://www.inkscape.org/namespaces/inkscape"
   width="32"
   height="32"
   id="svg2"
   version="1.1"
   inkscape:version="0.91 r13725"
   sodipodi:docname="Na.svg"
   sodipodi:version="0.32"
   inkscape:output_extension="org.inkscape.output.svg.inkscape"
   sodipodi:modified="true">
  <defs
     id="defs4" />
  <sodipodi:namedview
     id="base"
     pagecolor="#ffffff"
     bordercolor="#666666"
     borderopacity="1.0"
     inkscape:pageopacity="0.0"
     inkscape:pageshadow="2"
     inkscape:zoom="5.5542706"
     inkscape:cx="-20.795234"
     inkscape:cy="18.966357"
     inkscape:document-units="px"
     inkscape:current-layer="layer1"
     showgrid="false"
     inkscape:window-width="1680"
     inkscape:window-height="987"
     inkscape:window-x="1672"
     inkscape:window-y="-8"
     inkscape:window-maximized="1"
     width="32px"
     showguides="true"
     inkscape:guide-bbox="true">
    <sodipodi:guide
       orientation="0,1"
       position="3.1507288,36.818516"
       id="guide3842" />
    <sodipodi:guide
       orientation="1,0"
       position="16.563831,15.753644"
       id="guide2991" />
    <sodipodi:guide
       orientation="0,1"
       position="20.614768,15.753644"
       id="guide2993" />
  </sodipodi:namedview>
  <metadata
     id="metadata7">
    <rdf:RDF>
      <cc:Work
         rdf:about="">
        <dc:format>image/svg+xml</dc:format>
        <dc:type
           rdf:resource="http://purl.org/dc/dcmitype/StillImage" />
        <dc:title />
      </cc:Work>
      <cc:Work
         rdf:about="">
        <dc:format>image/svg+xml</dc:format>
        <dc:type
           rdf:resource="http://purl.org/dc/dcmitype/StillImage" />
      </cc:Work>
    </rdf:RDF>
  </metadata>
  <g
     inkscape:label="Ebene 1"
     inkscape:groupmode="layer"
     id="layer1"
     transform="translate(0,-1020.3619)">
    <g
       transform="matrix(0.7437524,0,0,0.7316358,38.824044,151.13988)"
       style="font-size:29.02571678px;font-style:normal;font-weight:normal;line-height:125%;letter-spacing:0px;word-spacing:0px;fill:#ffffff;fill-opacity:1;stroke:none;font-family:HAW Frutiger Next Regular"
       id="text3838">
      <path
         d="M 36.180711,1222.8495 L 36.180711,1220.2666 L 38.706112,1220.2666 L 38.706112,1222.8495 L 36.180711,1222.8495 z M 43.292756,1208.1046 C 43.292745,1208.8593 43.171687,1209.5172 42.92958,1210.0782 C 42.687453,1210.6392 42.392336,1211.147 42.044229,1211.6017 C 41.696102,1212.0564 41.309158,1212.4822 40.883395,1212.879 C 40.457615,1213.2759 40.070523,1213.6968 39.722118,1214.1417 C 39.373699,1214.5867 39.078582,1215.0801 38.836767,1215.6219 C 38.594939,1216.1637 38.474028,1216.7928 38.474034,1217.5091 L 38.474034,1217.944 L 36.413675,1217.944 L 36.413675,1217.5667 C 36.413672,1216.7346 36.524839,1216.0235 36.747177,1215.4332 C 36.969507,1214.843 37.250009,1214.3157 37.588682,1213.8512 C 37.927345,1213.3868 38.290226,1212.9611 38.677323,1212.5743 C 39.064409,1212.1875 39.427289,1211.7861 39.765965,1211.3701 C 40.104626,1210.9541 40.385128,1210.4994 40.60747,1210.006 C 40.829796,1209.5126 40.940963,1208.9175 40.940972,1208.2207 C 40.940963,1207.2144 40.612038,1206.4501 39.954196,1205.9278 C 39.29634,1205.4055 38.483772,1205.1443 37.51649,1205.1443 C 36.839148,1205.1443 36.171555,1205.2163 35.513708,1205.3618 C 34.855856,1205.5067 34.217199,1205.6855 33.597735,1205.8981 L 33.424119,1203.9245 C 34.100865,1203.712 34.76831,1203.5379 35.426457,1203.4024 C 36.084599,1203.2669 36.848892,1203.1991 37.719337,1203.1991 C 38.493515,1203.1991 39.219276,1203.3007 39.89662,1203.5038 C 40.573949,1203.707 41.164183,1204.0165 41.667323,1204.4326 C 42.170445,1204.8486 42.567133,1205.3615 42.857388,1205.9712 C 43.147623,1206.5809 43.292745,1207.2921 43.292756,1208.1046 L 43.292756,1208.1046 z "
         style="fill:#ffffff"
         id="path15364"
         inkscape:connector-curvature="0" />
      <text
         xml:space="preserve"
         style="font-size:27.40637398px;font-style:normal;font-weight:normal;line-height:125%;letter-spacing:0px;word-spacing:0px;fill:#ffffff;fill-opacity:1;stroke:none;font-family:HAW Frutiger Next Regular"
         x="9.3159533"
         y="1049.0311"
         id="text2987"
         sodipodi:linespacing="125%"
         transform="scale(0.8535881,1.1715252)"><tspan
           sodipodi:role="line"
           id="tspan2989"
           x="9.3159533"
           y="1049.0311">N</tspan></text>
      <rect
         style="fill:#de8787;fill-opacity:1;fill-rule:nonzero;stroke:#ffffff;stroke-width:2.54941344;stroke-miterlimit:4;stroke-dasharray:none;stroke-opacity:1"
         id="rect15313-1"
         width="56.193146"
         height="43.035549"
         x="6.387064"
         y="1190.075"
         rx="5.8302789"
         ry="5.3686914" />
    </g>
    <rect
       style="fill:#ffffff;stroke:#ffffff;stroke-width:1.99999988;stroke-miterlimit:4;stroke-opacity:1;stroke-dasharray:none"
       id="rect3037"
       width="29.488052"
       height="29.269617"
       x="1.2796803"
       y="1021.8834"
       ry="4.6416383"
       rx="4.1501708" />
    <g
       transform="matrix(1.1715252,0,0,0.85358813,1.3139276,-3.1556389)"
       style="font-size:29.02571678px;font-style:normal;font-weight:normal;line-height:125%;letter-spacing:0px;word-spacing:0px;fill:#000000;fill-opacity:1;stroke:none;font-family:HAW Frutiger Next Regular;-inkscape-font-specification:HAW Frutiger Next Regular"
       id="text3838-8">
      <g
         transform="scale(0.85358813,1.1715252)"
         style="font-size:27.40637398px;line-height:125%;fill:#000000;font-family:HAW Frutiger Next Regular;-inkscape-font-specification:HAW Frutiger Next Regular"
         id="text2987-6">
        <path
           d="m 17.004264,1048.8138 -6.742028,-14.9368 0,14.9368 -3.5905632,0 0,-18.2798 5.9198702,0 6.769629,14.9636 0,-14.9636 3.589726,0 0,18.2798 z"
           id="path3010"
           style="font-weight:bold;fill:#000000;-inkscape-font-specification:'HAW Frutiger Next Regular, Bold'" />
      </g>
    </g>
  </g>
</svg>
