<?xml version="1.0" encoding="UTF-8" standalone="no"?>
<svg
   xmlns:dc="http://purl.org/dc/elements/1.1/"
   xmlns:cc="http://creativecommons.org/ns#"
   xmlns:rdf="http://www.w3.org/1999/02/22-rdf-syntax-ns#"
   xmlns:svg="http://www.w3.org/2000/svg"
   xmlns="http://www.w3.org/2000/svg"
   xmlns:sodipodi="http://sodipodi.sourceforge.net/DTD/sodipodi-0.dtd"
   xmlns:inkscape="http://www.inkscape.org/namespaces/inkscape"
   sodipodi:docname="print.svg"
   inkscape:version="1.0 (4035a4fb49, 2020-05-01)"
   id="svg2"
   viewBox="0 0 32 32"
   height="32"
   width="32"
   version="1.1">
  <metadata
     id="metadata12">
    <rdf:RDF>
      <cc:Work
         rdf:about="">
        <dc:format>image/svg+xml</dc:format>
        <dc:type
           rdf:resource="http://purl.org/dc/dcmitype/StillImage" />
        <dc:title></dc:title>
      </cc:Work>
    </rdf:RDF>
  </metadata>
  <defs
     id="defs10" />
  <sodipodi:namedview
     showguides="false"
     inkscape:document-rotation="0"
     inkscape:current-layer="svg2"
     inkscape:window-maximized="0"
     inkscape:window-y="72"
     inkscape:window-x="103"
     inkscape:cy="10.953422"
     inkscape:cx="15"
     inkscape:zoom="9.15625"
     showgrid="false"
     id="namedview8"
     inkscape:window-height="847"
     inkscape:window-width="1553"
     inkscape:pageshadow="2"
     inkscape:pageopacity="0"
     guidetolerance="10"
     gridtolerance="10"
     objecttolerance="10"
     borderopacity="1"
     bordercolor="#666666"
     pagecolor="#ffffff" />
  <rect
     transform="scale(-1,1)"
     y="19.871065"
     x="-46.342808"
     height="11.811027"
     width="8.1921453"
     id="rect3017"
     style="fill:#000000;fill-opacity:1;fill-rule:nonzero;stroke:#000000;stroke-width:1.01148;stroke-miterlimit:4;stroke-dasharray:none;stroke-opacity:1" />
  <rect
     rx="4.1501708"
     ry="4.6416383"
     y="1.5326802"
     x="1.4197959"
     height="29.269617"
     width="29.488052"
     id="rect3037"
     style="fill:none;stroke:none;stroke-width:2;stroke-miterlimit:4;stroke-dasharray:none;stroke-opacity:1" />
  <g
     id="g4" />
  <path
     inkscape:connector-curvature="0"
     style="fill:#000000;stroke:#000000;stroke-width:0.956953"
     id="path6"
     d="M 9.3738246,26.045381 H 22.377785 V 22.158827 H 9.3738246 Z m 0,-9.717662 H 22.377785 v -5.830255 h -2.322019 q -0.580302,0 -0.986676,-0.425133 Q 18.662717,9.6472003 18.662717,9.0401117 V 6.610909 H 9.3738246 v 9.717661 z m 16.7198434,0.971852 q 0,-0.394522 -0.275522,-0.683612 -0.275522,-0.289089 -0.653448,-0.28824 -0.377928,8.51e-4 -0.653451,0.28824 -0.27552,0.287389 -0.27552,0.683612 0,0.396223 0.27552,0.683612 0.275523,0.287389 0.653451,0.288239 0.377926,8.5e-4 0.653448,-0.288239 0.275522,-0.289089 0.275522,-0.683612 z m 1.857128,0 v 6.316608 q 0,0.197261 -0.138168,0.341805 -0.138167,0.144545 -0.326725,0.144545 h -3.250989 v 2.429203 q 0,0.607089 -0.406375,1.03222 -0.406372,0.425132 -0.986674,0.425132 H 8.9089326 q -0.5803012,0 -0.986675,-0.425132 -0.4063738,-0.425131 -0.4063738,-1.03222 V 24.102529 H 4.2648935 q -0.1885573,0 -0.3267246,-0.144545 Q 3.800002,23.81344 3.800002,23.616179 v -6.316608 q 0,-1.199721 0.8200623,-2.057637 0.8200622,-0.857916 1.9668491,-0.857916 H 7.5158838 V 6.1245583 q 0,-0.6070881 0.4063738,-1.0322198 0.4063738,-0.4251317 0.986675,-0.4251317 h 9.7529714 q 0.580302,0 1.276826,0.3035439 0.696524,0.3035441 1.102897,0.7286759 l 2.205798,2.3076151 q 0.406375,0.4251317 0.696525,1.1538075 0.290152,0.728676 0.290152,1.3357648 v 3.886554 h 0.928971 q 1.146786,0 1.966848,0.857916 0.820062,0.857915 0.820062,2.057638 z" />
</svg>
